<?xml version="1.0" encoding="UTF-8"?>
<svg xmlns="http://www.w3.org/2000/svg" xmlns:xlink="http://www.w3.org/1999/xlink" width="20px" height="20px" viewBox="0 0 20 20" version="1.1">
<g id="surface1">
<path style=" stroke:none;fill-rule:nonzero;fill:rgb(23.137255%,50.196078%,29.411765%);fill-opacity:1;" d="M 6.640625 7.179688 C 6.726562 7.148438 9.382812 6.296875 9.382812 6.296875 C 11.015625 5.773438 12.769531 5.785156 14.394531 6.328125 L 14.636719 6.40625 C 10.957031 4.894531 9.320312 4.636719 8.214844 4.390625 C 7.898438 4.320312 6.335938 4.023438 5.835938 5.125 C 5.609375 5.628906 5.523438 6.347656 6.640625 7.179688 Z M 6.640625 7.179688 "/>
<path style=" stroke:none;fill-rule:nonzero;fill:rgb(23.137255%,50.196078%,29.411765%);fill-opacity:1;" d="M 4.757812 9.90625 C 2.867188 11.207031 0.429688 11.347656 0.429688 11.347656 C 0.191406 11.347656 0 11.140625 0 10.886719 C 0 10.695312 0.105469 10.535156 0.257812 10.464844 C 0.265625 10.460938 1.4375 9.789062 2.34375 8.757812 C 1.4375 7.726562 0.265625 7.058594 0.257812 7.054688 C 0.105469 6.984375 0 6.820312 0 6.632812 C 0 6.375 0.191406 6.171875 0.429688 6.171875 C 0.429688 6.171875 2.863281 6.308594 4.753906 7.609375 C 4.753906 7.609375 4.757812 7.609375 4.757812 7.609375 C 4.738281 7.621094 4.71875 7.632812 4.703125 7.644531 C 4.359375 7.863281 4.136719 8.265625 4.136719 8.710938 L 4.136719 8.804688 C 4.136719 9.277344 4.453125 9.621094 4.757812 9.90625 Z M 4.757812 9.90625 "/>
<path style=" stroke:none;fill-rule:nonzero;fill:rgb(23.137255%,50.196078%,29.411765%);fill-opacity:1;" d="M 10.964844 15.363281 C 11.105469 15.65625 11.457031 15.78125 11.753906 15.640625 C 11.753906 15.640625 14.667969 14.0625 16.3125 11.46875 C 15.289062 11.84375 14.171875 12.175781 13.148438 12.457031 C 12.984375 12.5 12.816406 12.539062 12.648438 12.5625 C 11.957031 13.761719 11.058594 14.710938 11.054688 14.71875 C 10.902344 14.890625 10.859375 15.144531 10.964844 15.363281 Z M 10.964844 15.363281 "/>
<path style=" stroke:none;fill-rule:nonzero;fill:rgb(23.137255%,50.196078%,29.411765%);fill-opacity:1;" d="M 6.382812 11.851562 C 6.4375 12.179688 7.195312 13.660156 7.804688 14.246094 C 8.042969 14.472656 8.347656 14.601562 8.625 14.425781 C 8.625 14.425781 9.609375 13.71875 10.675781 12.546875 C 9.101562 12.300781 7.574219 11.570312 6.445312 10.914062 C 6.3125 11.179688 6.328125 11.542969 6.382812 11.851562 Z M 6.382812 11.851562 "/>
<path style=" stroke:none;fill-rule:nonzero;fill:rgb(41.568627%,74.509804%,44.313725%);fill-opacity:1;" d="M 19.679688 8.277344 C 19.460938 8.039062 19.183594 7.867188 18.875 7.761719 L 14.304688 6.242188 C 12.679688 5.699219 10.925781 5.6875 9.296875 6.210938 L 6.800781 7.007812 C 6.21875 7.191406 5.246094 7.617188 4.632812 7.527344 C 4.632812 7.527344 4.589844 7.550781 4.570312 7.5625 C 4.230469 7.78125 4.007812 8.183594 4.007812 8.632812 L 4.007812 8.722656 C 4.007812 9.171875 4.253906 9.492188 4.578125 9.78125 C 4.59375 9.792969 4.644531 9.835938 4.671875 9.859375 C 5.160156 10.238281 9.554688 13.5625 13.148438 12.585938 C 16.679688 11.621094 21.257812 10.023438 19.679688 8.277344 Z M 19.679688 8.277344 "/>
<path style=" stroke:none;fill-rule:nonzero;fill:rgb(23.137255%,50.196078%,29.411765%);fill-opacity:1;" d="M 11.285156 8.1875 C 10.8125 8.1875 10.429688 7.800781 10.429688 7.328125 C 10.429688 6.855469 10.8125 6.46875 11.285156 6.46875 Z M 11.285156 8.1875 "/>
<path style=" stroke:none;fill-rule:nonzero;fill:rgb(23.137255%,50.196078%,29.411765%);fill-opacity:1;" d="M 11.285156 9.902344 C 10.8125 9.902344 10.429688 9.515625 10.429688 9.042969 C 10.429688 8.570312 10.8125 8.1875 11.285156 8.1875 Z M 11.285156 9.902344 "/>
<path style=" stroke:none;fill-rule:nonzero;fill:rgb(23.137255%,50.196078%,29.411765%);fill-opacity:1;" d="M 11.285156 11.617188 C 10.8125 11.617188 10.429688 11.234375 10.429688 10.757812 C 10.429688 10.285156 10.8125 9.902344 11.285156 9.902344 Z M 11.285156 11.617188 "/>
<path style=" stroke:none;fill-rule:nonzero;fill:rgb(23.137255%,50.196078%,29.411765%);fill-opacity:1;" d="M 8.90625 8.496094 C 8.605469 8.496094 8.359375 8.25 8.359375 7.945312 C 8.359375 7.644531 8.605469 7.398438 8.90625 7.398438 Z M 8.90625 8.496094 "/>
<path style=" stroke:none;fill-rule:nonzero;fill:rgb(23.137255%,50.196078%,29.411765%);fill-opacity:1;" d="M 8.90625 9.59375 C 8.605469 9.59375 8.359375 9.347656 8.359375 9.042969 C 8.359375 8.742188 8.605469 8.496094 8.90625 8.496094 Z M 8.90625 9.59375 "/>
<path style=" stroke:none;fill-rule:nonzero;fill:rgb(23.137255%,50.196078%,29.411765%);fill-opacity:1;" d="M 8.90625 10.691406 C 8.605469 10.691406 8.359375 10.445312 8.359375 10.140625 C 8.359375 9.839844 8.605469 9.59375 8.90625 9.59375 Z M 8.90625 10.691406 "/>
<path style=" stroke:none;fill-rule:nonzero;fill:rgb(23.137255%,50.196078%,29.411765%);fill-opacity:1;" d="M 16.660156 8.496094 C 16.660156 8.6875 16.507812 8.839844 16.3125 8.839844 C 16.125 8.839844 15.96875 8.6875 15.96875 8.496094 C 15.96875 8.304688 16.125 8.148438 16.3125 8.148438 C 16.507812 8.148438 16.660156 8.304688 16.660156 8.496094 Z M 16.660156 8.496094 "/>
</g>
</svg>
