<?xml version="1.0" encoding="UTF-8"?>
<svg xmlns="http://www.w3.org/2000/svg" xmlns:xlink="http://www.w3.org/1999/xlink" width="50px" height="50px" viewBox="0 0 50 50" version="1.1">
<g id="surface1">
<path style=" stroke:none;fill-rule:nonzero;fill:rgb(23.137255%,50.196078%,29.411765%);fill-opacity:1;" d="M 16.597656 17.945312 C 16.820312 17.867188 23.457031 15.738281 23.457031 15.738281 C 27.535156 14.4375 31.921875 14.460938 35.984375 15.816406 L 36.59375 16.019531 C 27.390625 12.234375 23.296875 11.59375 20.539062 10.976562 C 19.742188 10.796875 15.84375 10.058594 14.59375 12.816406 C 14.023438 14.074219 13.808594 15.871094 16.597656 17.945312 Z M 16.597656 17.945312 "/>
<path style=" stroke:none;fill-rule:nonzero;fill:rgb(23.137255%,50.196078%,29.411765%);fill-opacity:1;" d="M 11.894531 24.765625 C 7.167969 28.019531 1.074219 28.367188 1.074219 28.367188 C 0.480469 28.367188 0 27.851562 0 27.214844 C 0 26.742188 0.265625 26.335938 0.644531 26.160156 C 0.664062 26.152344 3.59375 24.476562 5.859375 21.898438 C 3.59375 19.316406 0.664062 17.644531 0.644531 17.632812 C 0.265625 17.457031 0 17.050781 0 16.578125 C 0 15.941406 0.480469 15.429688 1.074219 15.429688 C 1.074219 15.429688 7.160156 15.773438 11.882812 19.019531 C 11.886719 19.023438 11.890625 19.023438 11.894531 19.027344 C 11.847656 19.054688 11.800781 19.082031 11.753906 19.113281 C 10.898438 19.65625 10.339844 20.660156 10.339844 21.78125 L 10.339844 22.011719 C 10.339844 23.195312 11.132812 24.054688 11.894531 24.765625 Z M 11.894531 24.765625 "/>
<path style=" stroke:none;fill-rule:nonzero;fill:rgb(23.137255%,50.196078%,29.411765%);fill-opacity:1;" d="M 27.410156 38.40625 C 27.761719 39.144531 28.644531 39.453125 29.382812 39.105469 C 29.382812 39.105469 36.671875 35.152344 40.785156 28.667969 C 38.21875 29.605469 35.433594 30.4375 32.867188 31.140625 C 32.457031 31.253906 32.039062 31.34375 31.621094 31.410156 C 29.890625 34.40625 27.644531 36.78125 27.632812 36.800781 C 27.257812 37.230469 27.152344 37.859375 27.410156 38.40625 Z M 27.410156 38.40625 "/>
<path style=" stroke:none;fill-rule:nonzero;fill:rgb(23.137255%,50.196078%,29.411765%);fill-opacity:1;" d="M 15.953125 29.628906 C 16.097656 30.453125 17.992188 34.148438 19.515625 35.617188 C 20.105469 36.183594 20.871094 36.503906 21.558594 36.0625 C 21.558594 36.0625 24.019531 34.300781 26.6875 31.371094 C 22.753906 30.753906 18.933594 28.929688 16.117188 27.28125 C 15.78125 27.945312 15.824219 28.859375 15.953125 29.628906 Z M 15.953125 29.628906 "/>
<path style=" stroke:none;fill-rule:nonzero;fill:rgb(41.568627%,74.509804%,44.313725%);fill-opacity:1;" d="M 49.195312 20.695312 C 48.65625 20.09375 47.957031 19.664062 47.191406 19.40625 L 35.765625 15.601562 C 31.703125 14.246094 27.316406 14.21875 23.238281 15.523438 L 17.003906 17.515625 C 15.550781 17.980469 13.117188 19.039062 11.582031 18.816406 C 11.582031 18.816406 11.476562 18.878906 11.429688 18.90625 C 10.574219 19.453125 10.015625 20.457031 10.015625 21.578125 L 10.015625 21.808594 C 10.015625 22.929688 10.636719 23.734375 11.441406 24.449219 C 11.484375 24.484375 11.609375 24.59375 11.683594 24.648438 C 12.898438 25.597656 23.890625 33.910156 32.867188 31.464844 C 41.703125 29.054688 53.148438 25.0625 49.195312 20.695312 Z M 49.195312 20.695312 "/>
<path style=" stroke:none;fill-rule:nonzero;fill:rgb(23.137255%,50.196078%,29.411765%);fill-opacity:1;" d="M 28.214844 20.464844 C 27.03125 20.464844 26.070312 19.503906 26.070312 18.320312 C 26.070312 17.136719 27.03125 16.175781 28.214844 16.175781 Z M 28.214844 20.464844 "/>
<path style=" stroke:none;fill-rule:nonzero;fill:rgb(23.137255%,50.196078%,29.411765%);fill-opacity:1;" d="M 28.214844 24.753906 C 27.03125 24.753906 26.070312 23.792969 26.070312 22.609375 C 26.070312 21.425781 27.03125 20.464844 28.214844 20.464844 Z M 28.214844 24.753906 "/>
<path style=" stroke:none;fill-rule:nonzero;fill:rgb(23.137255%,50.196078%,29.411765%);fill-opacity:1;" d="M 28.214844 29.042969 C 27.03125 29.042969 26.070312 28.082031 26.070312 26.898438 C 26.070312 25.714844 27.03125 24.753906 28.214844 24.753906 Z M 28.214844 29.042969 "/>
<path style=" stroke:none;fill-rule:nonzero;fill:rgb(23.137255%,50.196078%,29.411765%);fill-opacity:1;" d="M 22.269531 21.238281 C 21.511719 21.238281 20.898438 20.625 20.898438 19.867188 C 20.898438 19.109375 21.511719 18.492188 22.269531 18.492188 Z M 22.269531 21.238281 "/>
<path style=" stroke:none;fill-rule:nonzero;fill:rgb(23.137255%,50.196078%,29.411765%);fill-opacity:1;" d="M 22.269531 23.980469 C 21.511719 23.980469 20.898438 23.367188 20.898438 22.609375 C 20.898438 21.851562 21.511719 21.238281 22.269531 21.238281 Z M 22.269531 23.980469 "/>
<path style=" stroke:none;fill-rule:nonzero;fill:rgb(23.137255%,50.196078%,29.411765%);fill-opacity:1;" d="M 22.269531 26.726562 C 21.511719 26.726562 20.898438 26.113281 20.898438 25.355469 C 20.898438 24.597656 21.511719 23.980469 22.269531 23.980469 Z M 22.269531 26.726562 "/>
<path style=" stroke:none;fill-rule:nonzero;fill:rgb(23.137255%,50.196078%,29.411765%);fill-opacity:1;" d="M 41.652344 21.238281 C 41.652344 21.714844 41.265625 22.101562 40.785156 22.101562 C 40.308594 22.101562 39.921875 21.714844 39.921875 21.238281 C 39.921875 20.761719 40.308594 20.371094 40.785156 20.371094 C 41.265625 20.371094 41.652344 20.761719 41.652344 21.238281 Z M 41.652344 21.238281 "/>
</g>
</svg>
